<svg width="28" height="28" viewBox="0 0 28 28" fill="none" xmlns="http://www.w3.org/2000/svg">
<path fill-rule="evenodd" clip-rule="evenodd" d="M14.0001 1.16699C14.3095 1.16699 14.6062 1.28991 14.825 1.5087C15.0438 1.72749 15.1667 2.02424 15.1667 2.33366V3.50033C15.1667 3.80974 15.0438 4.10649 14.825 4.32528C14.6062 4.54408 14.3095 4.66699 14.0001 4.66699C13.6907 4.66699 13.3939 4.54408 13.1751 4.32528C12.9563 4.10649 12.8334 3.80974 12.8334 3.50033V2.33366C12.8334 2.02424 12.9563 1.72749 13.1751 1.5087C13.3939 1.28991 13.6907 1.16699 14.0001 1.16699V1.16699ZM3.84191 3.84216C4.0607 3.62344 4.35739 3.50057 4.66675 3.50057C4.97611 3.50057 5.2728 3.62344 5.49158 3.84216L6.65825 5.00883C6.87077 5.22886 6.98836 5.52356 6.9857 5.82946C6.98304 6.13536 6.86035 6.42797 6.64404 6.64428C6.42773 6.86059 6.13511 6.98329 5.82922 6.98595C5.52332 6.9886 5.22862 6.87101 5.00858 6.65849L3.84191 5.49183C3.6232 5.27304 3.50033 4.97635 3.50033 4.66699C3.50033 4.35763 3.6232 4.06094 3.84191 3.84216V3.84216ZM24.1582 3.84216C24.377 4.06094 24.4998 4.35763 24.4998 4.66699C24.4998 4.97635 24.377 5.27304 24.1582 5.49183L22.9916 6.65849C22.884 6.76992 22.7552 6.8588 22.6129 6.91994C22.4705 6.98109 22.3175 7.01327 22.1625 7.01462C22.0076 7.01596 21.854 6.98645 21.7106 6.92778C21.5673 6.86912 21.437 6.78249 21.3275 6.67295C21.2179 6.56341 21.1313 6.43315 21.0726 6.28977C21.014 6.14639 20.9844 5.99277 20.9858 5.83786C20.9871 5.68295 21.0193 5.52986 21.0805 5.38752C21.1416 5.24518 21.2305 5.11645 21.3419 5.00883L22.5086 3.84216C22.7274 3.62344 23.0241 3.50057 23.3334 3.50057C23.6428 3.50057 23.9395 3.62344 24.1582 3.84216ZM14.0001 8.16699C12.453 8.16699 10.9693 8.78157 9.87529 9.87554C8.78133 10.9695 8.16675 12.4532 8.16675 14.0003C8.16675 15.5474 8.78133 17.0312 9.87529 18.1251C10.9693 19.2191 12.453 19.8337 14.0001 19.8337C15.5472 19.8337 17.0309 19.2191 18.1249 18.1251C19.2188 17.0312 19.8334 15.5474 19.8334 14.0003C19.8334 12.4532 19.2188 10.9695 18.1249 9.87554C17.0309 8.78157 15.5472 8.16699 14.0001 8.16699V8.16699ZM1.16675 14.0003C1.16675 13.6909 1.28966 13.3942 1.50846 13.1754C1.72725 12.9566 2.024 12.8337 2.33341 12.8337H3.50008C3.8095 12.8337 4.10625 12.9566 4.32504 13.1754C4.54383 13.3942 4.66675 13.6909 4.66675 14.0003C4.66675 14.3097 4.54383 14.6065 4.32504 14.8253C4.10625 15.0441 3.8095 15.167 3.50008 15.167H2.33341C2.024 15.167 1.72725 15.0441 1.50846 14.8253C1.28966 14.6065 1.16675 14.3097 1.16675 14.0003ZM23.3334 14.0003C23.3334 13.6909 23.4563 13.3942 23.6751 13.1754C23.8939 12.9566 24.1907 12.8337 24.5001 12.8337H25.6667C25.9762 12.8337 26.2729 12.9566 26.4917 13.1754C26.7105 13.3942 26.8334 13.6909 26.8334 14.0003C26.8334 14.3097 26.7105 14.6065 26.4917 14.8253C26.2729 15.0441 25.9762 15.167 25.6667 15.167H24.5001C24.1907 15.167 23.8939 15.0441 23.6751 14.8253C23.4563 14.6065 23.3334 14.3097 23.3334 14.0003ZM5.00858 21.3422C5.22862 21.1296 5.52332 21.012 5.82922 21.0147C6.13511 21.0174 6.42773 21.1401 6.64404 21.3564C6.86035 21.5727 6.98304 21.8653 6.9857 22.1712C6.98836 22.4771 6.87077 22.7718 6.65825 22.9918L5.49158 24.1585C5.27155 24.371 4.97684 24.4886 4.67095 24.4859C4.36505 24.4833 4.07244 24.3606 3.85613 24.1443C3.63982 23.928 3.51712 23.6354 3.51446 23.3295C3.5118 23.0236 3.6294 22.7289 3.84191 22.5088L5.00858 21.3422ZM22.5086 24.1585L21.3419 22.9918C21.1294 22.7718 21.0118 22.4771 21.0145 22.1712C21.0171 21.8653 21.1398 21.5727 21.3561 21.3564C21.5724 21.1401 21.8651 21.0174 22.1709 21.0147C22.4768 21.012 22.7715 21.1296 22.9916 21.3422L24.1582 22.5088C24.3708 22.7289 24.4884 23.0236 24.4857 23.3295C24.483 23.6354 24.3603 23.928 24.144 24.1443C23.9277 24.3606 23.6351 24.4833 23.3292 24.4859C23.0233 24.4886 22.7286 24.371 22.5086 24.1585ZM14.0001 23.3337C14.3095 23.3337 14.6062 23.4566 14.825 23.6754C15.0438 23.8942 15.1667 24.1909 15.1667 24.5003V25.667C15.1667 25.9764 15.0438 26.2732 14.825 26.492C14.6062 26.7107 14.3095 26.8337 14.0001 26.8337C13.6907 26.8337 13.3939 26.7107 13.1751 26.492C12.9563 26.2732 12.8334 25.9764 12.8334 25.667V24.5003C12.8334 24.1909 12.9563 23.8942 13.1751 23.6754C13.3939 23.4566 13.6907 23.3337 14.0001 23.3337V23.3337Z" fill="#F2C94C"/>
<path d="M14 7C12.1435 7 10.363 7.7375 9.05025 9.05025C7.7375 10.363 7 12.1435 7 14C7 15.8565 7.7375 17.637 9.05025 18.9497C10.363 20.2625 12.1435 21 14 21C15.8565 21 17.637 20.2625 18.9497 18.9497C20.2625 17.637 21 15.8565 21 14C21 12.1435 20.2625 10.363 18.9497 9.05025C17.637 7.7375 15.8565 7 14 7Z" fill="#F2C94C"/>
</svg>
