<svg width="207" height="94" viewBox="0 0 207 94" fill="none" xmlns="http://www.w3.org/2000/svg">
<path d="M71.9607 30.238C71.9607 32.0931 71.8027 33.8911 71.4898 35.6317C71.176 37.3726 70.5765 38.9149 69.6916 40.2581C68.8045 41.6013 67.541 42.6797 65.8999 43.494C64.2571 44.3072 62.1081 44.714 59.4519 44.714C56.3532 44.714 53.7324 43.9565 51.5929 42.4434C49.4521 40.93 48.0688 38.5645 47.4412 35.3477L55.3555 33.3608C55.4661 34.3452 55.8997 35.1776 56.656 35.8589C57.4132 36.5396 58.2703 36.8802 59.2304 36.8802C60.2262 36.8802 61.0017 36.6248 61.5548 36.1143C62.1078 35.6031 62.5139 34.9704 62.7724 34.2123C63.0303 33.4564 63.1871 32.6324 63.2424 31.7433C63.2977 30.8539 63.3261 30.0315 63.3261 29.2734V3.50085H71.9604V30.238H71.9607ZM91.1482 3.50085H98.2886L115.335 43.6923H105.594L102.217 35.1772H86.9971L83.7316 43.6923H74.2124L91.1482 3.50085ZM94.469 15.1951L89.7096 27.6838H99.2841L94.469 15.1951ZM143.064 13.9459C142.215 12.8869 141.173 12.073 139.937 11.5051C138.701 10.9375 137.271 10.6536 135.648 10.6536C134.024 10.6536 132.521 10.9758 131.137 11.6189C129.768 12.2516 128.543 13.1701 127.539 14.3157C126.524 15.4703 125.731 16.8417 125.159 18.431C124.587 20.0202 124.302 21.7433 124.302 23.5968C124.302 25.4897 124.587 27.2213 125.159 28.7911C125.732 30.3618 126.515 31.7242 127.512 32.8784C128.507 34.0333 129.678 34.9315 131.026 35.5746C132.373 36.2187 133.822 36.5396 135.371 36.5396C137.142 36.5396 138.71 36.162 140.076 35.4044C141.44 34.6479 142.567 33.5877 143.452 32.2256L150.648 37.7318C148.987 40.1161 146.884 41.8759 144.337 43.0113C141.792 44.1468 139.171 44.714 136.478 44.714C133.415 44.714 130.592 44.222 128.01 43.2379C125.427 42.2545 123.196 40.8448 121.313 39.0092C119.431 37.1739 117.965 34.95 116.913 32.3391C115.861 29.7275 115.336 26.8141 115.336 23.5968C115.336 20.381 115.861 17.4657 116.913 14.8548C117.965 12.2432 119.431 10.0206 121.313 8.18464C123.196 6.3497 125.427 4.94002 128.01 3.95529C130.592 2.97186 133.415 2.47949 136.478 2.47949C137.585 2.47949 138.738 2.58419 139.937 2.79131C141.147 3.00286 142.334 3.33562 143.48 3.7848C144.642 4.23891 145.757 4.84473 146.829 5.60126C147.899 6.3591 148.857 7.28581 149.706 8.38302L143.064 13.9459ZM155.942 3.50085H164.576V20.1904L179.797 3.50085H191.087L173.652 22.178L192.582 43.6923H180.515L164.576 24.6188V43.6923H155.941V3.50085H155.942ZM47.9237 50.5047H74.2124V58.6788H56.5567V66.8536H72.8845V75.0284H56.5567V90.6959H47.9234V50.5047H47.9237ZM81.3519 50.5047H107.973V58.6788H89.9861V66.1723H106.978V74.3464H89.9861V82.5218H108.97V90.6959H81.3516V50.5047H81.3519ZM116.497 50.5047H131.662C133.654 50.5047 135.545 50.7034 137.334 51.1012C139.124 51.4979 140.692 52.1604 142.04 53.0875C143.386 54.0158 144.456 55.2644 145.249 56.8345C146.043 58.4056 146.439 60.3637 146.439 62.7095C146.439 65.548 145.72 67.9609 144.28 69.9478C142.842 71.9338 140.739 73.1925 137.971 73.7227L147.934 90.6959H137.584L129.393 74.631H125.131V90.6959H116.497V50.5047H116.497ZM125.13 67.1369H130.223C130.997 67.1369 131.818 67.1087 132.685 67.052C133.552 66.9953 134.336 66.8251 135.038 66.5408C135.726 66.2666 136.328 65.8057 136.781 65.2073C137.242 64.6025 137.473 63.7503 137.473 62.6525C137.473 61.6305 137.269 60.8172 136.864 60.2117C136.458 59.6069 135.941 59.143 135.314 58.8208C134.687 58.4999 133.967 58.2818 133.156 58.168C132.367 58.0563 131.572 57.9996 130.776 57.9982H125.13V67.1369ZM152.97 50.5047H165.921C169.056 50.5047 172.037 50.8645 174.86 51.5828C177.683 52.3027 180.145 53.4667 182.248 55.0741C184.351 56.6831 186.021 58.7735 187.257 61.3468C188.493 63.9205 189.113 67.0429 189.113 70.7131C189.113 73.9688 188.512 76.8358 187.313 79.3138C186.113 81.7925 184.499 83.8744 182.471 85.558C180.441 87.2425 178.099 88.52 175.441 89.3896C172.784 90.2609 169.998 90.6953 167.085 90.6953H152.971V50.5047H152.97ZM161.604 82.5215H166.088C168.08 82.5215 169.934 82.314 171.65 81.8962C173.366 81.4807 174.851 80.7893 176.106 79.8243C177.359 78.8587 178.347 77.5913 179.066 76.0212C179.786 74.4514 180.145 72.5299 180.145 70.2593C180.145 68.2921 179.786 66.5791 179.066 65.1217C178.347 63.6654 177.378 62.4638 176.162 61.517C174.943 60.5715 173.513 59.8619 171.871 59.3884C170.23 58.9161 168.504 58.6788 166.696 58.6788H161.605V82.5215H161.604ZM195.476 50.5047H204.11V90.6956H195.476V50.5047Z" fill="#333333"/>
<path d="M41.1831 66.1716H25.9078V50.5044H17.2732V66.1716H1.99756V75.0277H17.2732V90.6952H25.9078V75.0277H41.1831V66.1716Z" fill="#333333"/>
</svg>
