<svg width="38" height="30" viewBox="0 0 38 30" fill="none" xmlns="http://www.w3.org/2000/svg">
<path d="M19.5057 0.135392C19.3387 0.0464948 19.1525 0 18.9634 0C18.7742 0 18.588 0.0464948 18.421 0.135392L1.11244 9.36663C0.928105 9.46512 0.773983 9.61182 0.666525 9.79107C0.559067 9.97032 0.502308 10.1754 0.502308 10.3844C0.502308 10.5934 0.559067 10.7984 0.666525 10.9777C0.773983 11.1569 0.928105 11.3036 1.11244 11.4021L7.85817 15L1.11013 18.5979C0.925798 18.6964 0.771675 18.8431 0.664217 19.0223C0.556759 19.2016 0.5 19.4066 0.5 19.6156C0.5 19.8246 0.556759 20.0297 0.664217 20.2089C0.771675 20.3882 0.925798 20.5349 1.11013 20.6334L18.4187 29.8646C18.5857 29.9535 18.7719 30 18.961 30C19.1502 30 19.3364 29.9535 19.5034 29.8646L36.812 20.6334C36.9963 20.5349 37.1504 20.3882 37.2579 20.2089C37.3653 20.0297 37.4221 19.8246 37.4221 19.6156C37.4221 19.4066 37.3653 19.2016 37.2579 19.0223C37.1504 18.8431 36.9963 18.6964 36.812 18.5979L30.0708 15L36.8143 11.4021C36.9986 11.3036 37.1527 11.1569 37.2602 10.9777C37.3676 10.7984 37.4244 10.5934 37.4244 10.3844C37.4244 10.1754 37.3676 9.97032 37.2602 9.79107C37.1527 9.61182 36.9986 9.46512 36.8143 9.36663L19.5057 0.135392ZM18.9634 18.3071L4.10567 10.3844L18.9634 2.46166L33.821 10.3844L18.9634 18.3071Z" fill="currentColor"/>
</svg>
