<svg width="58" height="58" viewBox="0 0 58 58" fill="none" xmlns="http://www.w3.org/2000/svg">
<circle r="28.94" cx="29" cy="29" fill="white" />
<path d="M18.8252 12.8489L0.112059 31.562C0.0373388 30.7199 0 29.8642 0 29.0017C0 12.9847 12.9847 0 29.0017 0C40.9304 0 51.1782 7.20543 55.6298 17.5043L45.7725 27.3616L25.0424 6.63161L23.4091 8.2649L23.0153 8.6588L18.8252 12.8489Z" fill="#505FD6"/>
<path d="M56.7233 20.4622L45.7695 31.416L43.7418 29.3883L43.745 29.3851L25.0419 10.6836L20.8517 14.8737L0.641113 35.0875C0.81772 35.9192 1.02803 36.7331 1.27687 37.5358L12.2274 26.5837L32.9839 47.3418L57.2932 22.9811L57.3927 23.0807C57.2081 22.1913 56.985 21.3179 56.7233 20.4622ZM29.3621 39.3997L16.4176 26.4552L14.3867 24.4276L22.3945 16.4198L24.3692 14.4435L24.4254 14.3889L24.4366 14.4082L26.437 16.4069L26.3856 16.4583L26.3969 16.4743L24.4254 18.4458L18.4436 24.4276L31.3881 37.3721L29.3621 39.3997ZM35.6024 41.5847L33.6309 43.553L31.6032 41.5301L39.5565 33.5769L26.567 20.5922L28.5947 18.5662L41.5826 31.5493L43.6102 33.5737L35.6024 41.5847Z" fill="#505FD6"/>
<path d="M58 29.0017C58 45.0153 45.0153 58 29.0017 58C17.0696 58 6.82171 50.7946 2.37012 40.4991L12.2309 30.6418L32.9609 51.3684L34.9134 49.416L57.8879 26.4414C57.9627 27.2835 58 28.1392 58 29.0017Z" fill="#505FD6"/>
</svg>
