<svg width="33" height="32" viewBox="0 0 33 32" fill="none" xmlns="http://www.w3.org/2000/svg">
  <path d="M7.99227 11.2013L6.66107 3.19922H0.5V6.39835H3.94747L7.14747 25.5931H27.2179L32.5 11.1928H7.99227V11.2013Z" fill="currentColor"/>
  <path d="M11.7044 31.9998C12.5904 31.9998 13.3087 31.2817 13.3087 30.3959C13.3087 29.5101 12.5904 28.792 11.7044 28.792C10.8184 28.792 10.1001 29.5101 10.1001 30.3959C10.1001 31.2817 10.8184 31.9998 11.7044 31.9998Z" fill="currentColor"/>
  <path d="M22.9002 31.9998C23.7862 31.9998 24.5044 31.2817 24.5044 30.3959C24.5044 29.5101 23.7862 28.792 22.9002 28.792C22.0141 28.792 21.2959 29.5101 21.2959 30.3959C21.2959 31.2817 22.0141 31.9998 22.9002 31.9998Z" fill="currentColor"/>
  <path d="M16.9609 9.59739C16.7134 9.18791 16.5001 8.65898 16.5001 7.99356C16.5001 6.22764 17.9337 4.79443 19.7001 4.79443C21.4665 4.79443 22.9001 6.22764 22.9001 7.99356C22.9001 8.65898 22.6867 9.17937 22.4393 9.59739H27.6958V6.39826H25.8697C25.7161 5.81815 25.4857 5.27217 25.187 4.76884L26.4841 3.47212L24.2227 1.2114L22.9257 2.50812C22.4222 2.20953 21.8761 1.9792 21.2958 1.82564V0H18.0958V1.82564C17.5155 1.9792 16.9694 2.20953 16.4659 2.50812L15.1689 1.2114L12.9075 3.47212L14.2046 4.76884C13.9059 5.27217 13.6755 5.81815 13.5219 6.39826H11.6958V9.59739H16.9609Z" fill="currentColor"/>
</svg>
