<svg width="24" height="24" viewBox="0 0 24 24" fill="none" xmlns="http://www.w3.org/2000/svg">
<g clip-path="url(#clip0)">
<path d="M23.4999 6.50708C23.364 6.02231 23.0993 5.58342 22.7339 5.23708C22.3582 4.88008 21.8977 4.62471 21.3959 4.49508C19.5179 4.00008 11.9939 4.00008 11.9939 4.00008C8.85721 3.96439 5.72131 4.12135 2.60388 4.47008C2.10208 4.60929 1.64245 4.87036 1.26588 5.23008C0.895885 5.58608 0.627885 6.02508 0.487885 6.50608C0.151578 8.31782 -0.0118232 10.1574 -0.000115239 12.0001C-0.0121152 13.8411 0.150885 15.6801 0.487885 17.4941C0.624885 17.9731 0.891885 18.4101 1.26288 18.7631C1.63388 19.1161 2.09588 19.3711 2.60388 19.5061C4.50689 20.0001 11.9939 20.0001 11.9939 20.0001C15.1345 20.0358 18.2744 19.8789 21.3959 19.5301C21.8977 19.4004 22.3582 19.1451 22.7339 18.7881C23.1039 18.4351 23.3669 17.9961 23.4989 17.5181C23.844 15.707 24.0118 13.8667 23.9999 12.0231C24.0258 10.1717 23.8583 8.32264 23.4999 6.50608V6.50708ZM9.60188 15.4241V8.57708L15.8619 12.0011L9.60188 15.4241Z" fill="var(--primary)"/>
</g>
<defs>
<clipPath id="clip0">
<rect width="24" height="24" fill="white"/>
</clipPath>
</defs>
</svg>
